<?xml version="1.0" standalone="no"?><!DOCTYPE svg PUBLIC "-//W3C//DTD SVG 1.1//EN" "http://www.w3.org/Graphics/SVG/1.1/DTD/svg11.dtd"><svg t="1776657008465" class="icon" viewBox="0 0 1049 1024" version="1.1" xmlns="http://www.w3.org/2000/svg" p-id="5639" xmlns:xlink="http://www.w3.org/1999/xlink" width="204.8828125" height="200"><path d="M525.584 552.01366667s268.831-2.63 309.364 193.243l-76.465 21.91 12.927 84.132a214.057 214.057 0 0 1-96.84-4.82 224.793 224.793 0 0 1-148.986-289.426z" fill="#EFC0C4" p-id="5640"></path><path d="M552.752 491.10466667S684.21 257.32966667 874.385 320.20966668l-20.157 77.12199999 79.313 30.893a215.59 215.59 0 0 1-52.583 81.503 224.574 224.574 0 0 1-325.358-14.67999999z" fill="#EFC0C4" p-id="5641"></path><path d="M508.494 472.70066665s-191.48999999-187.546-81.722-354.71699998l69.453 38.78 51.269-68.796a214.057 214.057 0 0 1 65.728 71.864 225.012 225.012 0 0 1-98.374 310.678z" fill="#EFC0C4" p-id="5642"></path><path d="M473.22 504.25066667s-230.927 136.059-363.919-13.146l55.43100001-57.184-53.45900001-65.72899999a213.619 213.619 0 0 1 86.324-43.81900003 224.793 224.793 0 0 1 274.527 175.27700002z" fill="#EFC0C4" p-id="5643"></path><path d="M481.76500001 545.22166667s72.082 258.314-106.48100001 348.144l-40.314-68.14-78.217 34.18a212.304 212.304 0 0 1-20.157-94.65000002 224.574 224.574 0 0 1 241.00600001-219.09599998z" fill="#EFC0C4" p-id="5644"></path></svg>