<?xml version="1.0" standalone="no"?><!DOCTYPE svg PUBLIC "-//W3C//DTD SVG 1.1//EN" "http://www.w3.org/Graphics/SVG/1.1/DTD/svg11.dtd"><svg t="1776658181753" class="icon" viewBox="0 0 1307 1024" version="1.1" xmlns="http://www.w3.org/2000/svg" p-id="6737" xmlns:xlink="http://www.w3.org/1999/xlink" width="255.2734375" height="200"><path d="M681.940426 35.513191c-52.507234 27.451915-153.817872 95.210213-191.945532 128.326809-6.53617 5.664681-13.94383 10.457872-16.340426 10.457872-6.53617-0.217872-22.658723-8.061277-35.077447-17.647659-6.318298-4.575319-11.982979-8.497021-12.636595-8.497022-4.575319 0 2.396596 28.977021 11.329361 46.624681l5.446809 10.675745-10.675745 8.932766c-38.781277 33.116596-85.188085 77.780426-121.790638 117.651064l-19.826383 21.569362-9.586383-3.70383c-5.882553-2.396596-11.982979-3.268085-16.558298-2.396596-8.932766 1.525106-21.787234 13.94383-23.965958 23.094468-1.307234 4.357447-4.575319 8.061277-10.457872 11.329362-10.457872 5.882553-15.033191 14.379574-15.251064 27.669787 0 5.446809-1.742979 12.854468-3.703829 16.558298-3.050213 5.664681-3.70383 11.547234-3.050213 31.591489 0.435745 13.725957 0 25.708936-0.87149 27.01617-8.061277 11.329362-36.602553 90.634894-38.345532 107.411064-1.089362 8.932766-0.435745 11.111489 5.011064 17.64766 7.189787 8.279149 16.994043 10.022128 21.133617 3.268085 3.921702-6.53617 23.094468-40.306383 31.155745-55.339575 26.362553-48.585532 25.055319-46.624681 28.541277-42.267234 2.178723 3.050213 2.614468 8.061277 1.742978 19.390639-0.653617 8.279149-1.960851 31.155745-2.614468 50.764255-1.742979 43.356596-2.178723 42.702979 22.658724 44.66383 9.150638 0.871489 23.965957 3.268085 32.680851 5.228936l16.122553 3.921702-10.24 19.826383c-24.18383 47.060426-59.261277 83.009362-100.221277 103.053617-21.787234 10.675745-35.513191 13.725957-58.825532 12.854468-21.133617-0.871489-23.094468 1.960851-10.457872 15.251064 9.586383 10.022128 18.301277 13.07234 43.79234 15.033192 9.804255 0.653617 17.865532 1.742979 17.865532 2.396595 0 1.960851-20.48 25.055319-29.630638 33.552341-22.876596 20.915745-41.177872 33.116596-59.697021 38.781276-6.754043 2.178723-11.982979 5.228936-11.982979 6.754043 0 5.011064 29.412766 21.351489 51.2 28.541276 19.390638 6.53617 22.876596 6.971915 52.507234 6.971915l31.59149 0.217873 18.737021-9.150639c16.994043-8.497021 46.842553-32.027234 61.875744-49.021276 36.820426-41.613617 86.277447-138.784681 96.953192-191.074043 3.268085-15.251064 3.921702-15.468936 21.787234-9.150638 19.172766 6.53617 30.284255 11.982979 30.284255 14.815319 0 3.485957 1.742979 4.357447 11.11149 6.100426 6.754043 1.307234 8.932766 0.435745 15.251064-5.011064l7.625531-6.53617 19.172766 7.407659c10.457872 4.139574 20.697872 7.40766 22.440851 7.40766 2.396596 0 3.050213 1.307234 1.960852 4.793191-0.653617 2.83234-1.307234 13.508085-1.307235 23.965958v19.172766l-10.675744 5.446808c-5.882553 2.83234-17.865532 7.189787-26.362553 9.586383-16.994043 4.793191-26.144681 9.586383-26.144681 13.94383 0 1.307234 1.960851 5.882553 4.575319 10.022128l4.575319 7.407659-6.754043 5.228936c-3.70383 3.050213-6.754043 6.318298-6.754042 7.40766 0 1.307234 3.70383 7.843404 8.061277 14.597447 5.228936 8.061277 8.061277 15.033191 8.279148 19.826383 0 6.53617 1.742979 8.932766 11.982979 17.211915 6.53617 5.446809 12.636596 12.418723 13.508085 15.468936 0.871489 3.050213 3.268085 6.754043 5.228936 8.279149 2.614468 1.960851 3.70383 7.189787 4.357447 21.787234 1.525106 33.988085 17.429787 79.305532 30.066383 85.405957 5.446809 2.614468 6.754043 2.396596 11.982979-1.525106 6.53617-4.793191 6.53617-5.011064 3.485957-54.468085-0.871489-15.686809-0.871489-28.759149 0-28.759149 1.089362 0 3.485957 1.525106 5.664681 3.485957 3.485957 3.050213 4.139574 3.050213 7.40766-2.178723 3.268085-4.793191 5.446809-5.664681 14.379574-5.664681 12.200851 0 13.07234 1.742979 7.40766 17.64766-6.100426 16.994043 0.435745 33.770213 12.418723 32.027234 7.189787-0.871489 18.519149-18.954894 20.262128-31.809362 3.050213-24.619574 2.83234-23.965957 12.636596-28.323404 11.765106-5.446809 24.619574-15.686809 32.027234-26.144681 8.932766-11.982979 18.737021-30.937872 21.787234-41.395745 1.525106-5.011064 3.485957-9.150638 4.139574-9.150638 0.653617 0.217872 3.268085 3.268085 5.664681 6.971915 7.625532 11.982979 15.033191 15.904681 30.066383 15.904681 10.893617-0.217872 15.251064-1.307234 22.876596-6.100426 5.228936-3.268085 9.804255-7.40766 10.675745-9.150638 0.653617-1.742979 3.70383-3.268085 6.971914-3.268085 11.982979 0 25.926809-13.07234 23.094468-21.569362-0.871489-2.83234 0.435745-5.228936 4.357447-7.625532 3.050213-1.960851 5.446809-4.575319 5.446809-5.882553 0-2.83234-13.290213-15.033191-16.558298-15.033192-1.307234 0-3.050213-5.011064-3.70383-11.111489-1.525106-13.290213-6.318298-21.133617-13.07234-22.440851-2.614468-0.435745-18.954894-2.396596-36.166809-4.357447-22.005106-2.396596-32.680851-4.575319-35.513191-6.971915-2.614468-2.396596-5.882553-3.268085-10.457873-2.396596-3.485957 0.871489-6.53617 0.653617-6.53617-0.435744 0-5.446809-22.658723-35.731064-30.066383-40.088511l-8.061276-4.793191 7.625532-0.653617c11.765106-0.871489 52.942979-9.368511 57.300425-11.765107 3.70383-1.742979 3.921702-1.525106 2.614468 3.050213-0.871489 2.614468-4.793191 12.854468-8.932766 22.222979-4.139574 9.586383-7.40766 17.64766-7.407659 18.083404 0 3.268085 8.497021-1.960851 25.708936-15.686809l20.044255-16.122553v19.390639c0 17.211915 0.435745 19.608511 3.921702 19.60851 3.921702 0 7.189787-6.318298 21.35149-40.306383l7.189787-17.429787 12.636596-1.525106c15.251064-1.960851 18.301277-5.228936 24.401702-26.798298 14.815319-50.546383 19.172766-64.708085 21.133617-66.015319 1.307234-0.871489 3.921702-3.921702 5.882553-6.971915 3.70383-5.228936 3.70383-4.357447 2.178723 23.965957-2.396596 42.485106-1.742979 109.371915 1.307234 129.634043 8.497021 55.775319 20.48 106.975319 30.937873 133.555744 24.401702 61.657872 53.596596 94.338723 97.824681 108.718298 16.994043 5.664681 21.133617 6.100426 52.289361 6.100426 29.848511 0 35.513191-0.653617 49.021277-5.228936 30.72-10.457872 61.875745-30.066383 81.266383-51.635745 15.686809-17.429787 22.005106-28.105532 18.737021-31.373617-1.307234-1.307234-15.033191-4.793191-30.502128-7.625532-15.468936-2.83234-39.870638-8.061277-54.250212-11.547234l-26.144681-6.318298 9.804255-2.614468c17.211915-4.575319 28.977021-9.150638 45.317447-18.083404 15.033191-8.279149 21.133617-14.815319 10.893617-11.765107-2.83234 0.871489-17.64766 2.178723-33.334468 2.832341-21.787234 0.871489-31.809362 0.217872-43.138724-2.396596-29.412766-6.971915-64.708085-27.01617-84.098723-48.149787-20.262128-22.005106-29.194894-41.613617-37.691915-83.880851-4.357447-21.569362-4.357447-27.01617-3.050213-98.042553 0.653617-41.395745 2.83234-93.249362 4.793192-115.472341 5.228936-60.786383 5.446809-55.121702-4.139575-57.518298l-8.279149-2.178723 0.435745-29.848511c0-16.558298-0.435745-30.937872-1.307234-32.245106-0.653617-1.307234-3.485957-2.396596-6.100425-2.396596-2.614468 0-10.893617-3.050213-18.301277-6.971915-12.854468-6.53617-13.508085-6.754043-18.954894-3.268085-3.050213 1.960851-7.625532 8.497021-10.457872 14.597447-2.83234 5.882553-5.446809 10.893617-6.100425 10.893617-0.653617 0-2.396596-4.139574-3.70383-9.368511-3.921702-14.161702-23.530213-42.049362-44.228085-62.529361-16.122553-16.340426-22.222979-20.697872-47.931915-34.205958-46.624681-24.619574-65.579574-28.759149-115.472341-25.055319-27.669787 1.960851-88.674043-0.435745-96.953191-3.70383-3.485957-1.525106-1.525106-2.396596 8.714893-4.575319 10.022128-2.178723 28.105532-2.396596 79.523405-0.871489 36.602553 1.089362 77.998298 1.960851 92.16 1.960851h25.926808l5.228936-6.536171c10.675745-13.290213 11.982979-30.284255 3.050213-39.652765-2.396596-2.614468-9.150638-5.664681-15.686808-6.971915-25.491064-5.228936-80.830638-10.893617-108.936171-11.329362-16.558298-0.435745-30.066383-1.089362-30.066383-1.742979 0-0.653617 4.575319-4.139574 10.457873-7.843404 47.278298-29.412766 91.288511-59.914894 93.685106-65.14383 8.279149-18.083404-2.83234-37.25617-23.094468-39.870638-6.754043-0.871489-11.547234 0.653617-26.580425 8.714893z m33.770212 0.217873c11.765106 5.011064 15.904681 18.737021 8.497022 29.194893-2.83234 4.357447-62.093617 44.445957-101.528511 69.065532-5.882553 3.70383-10.457872 7.625532-10.457872 8.932766 0 2.396596 29.848511 5.228936 57.518297 5.228936 16.77617 0 80.830638 7.625532 96.73532 11.547235 13.07234 3.268085 16.994043 10.24 13.508085 23.31234-1.307234 5.011064-4.357447 10.893617-6.971915 13.508085-4.357447 4.357447-5.882553 4.575319-39.652766 3.050213-19.390638-0.653617-60.132766-1.960851-90.634894-2.614468-47.931915-1.307234-57.518298-0.871489-69.719149 2.178723-15.904681 4.139574-33.55234 13.290213-47.931915 25.273192-14.161702 11.547234-42.267234 30.502128-45.317446 30.502127-1.525106 0-2.614468 0.871489-2.614468 1.960851s-22.222979 18.519149-49.457022 38.563405c-50.110638 37.25617-79.959149 61.222128-104.360851 83.662978-18.737021 17.429787-33.116596 18.954894-43.574468 4.575319-3.050213-3.921702-1.960851-5.446809 20.48-30.72 38.781277-43.574468 54.468085-59.479149 96.299575-97.82468 79.523404-72.551489 133.555745-116.997447 176.040851-144.885107 77.344681-50.328511 123.315745-77.344681 131.812766-77.562553 2.178723 0 7.189787 1.307234 11.329361 3.050213z m-270.597447 132.902127c6.100426 4.139574 13.94383 8.279149 17.429788 9.150639 7.625532 1.742979 7.40766 4.139574-1.089362 11.329361-14.161702 12.200851-13.94383 12.200851-18.737021 2.832341C437.923404 183.012766 430.951489 161.225532 432.694468 161.225532c0.435745 0 6.100426 3.268085 12.418723 7.407659zM590.434043 217.87234c20.915745 1.742979 46.624681 2.178723 76.255319 1.307234 44.010213-1.525106 44.881702-1.525106 64.27234 4.139575 22.005106 6.318298 66.668936 29.412766 82.355745 42.485106 21.569362 17.64766 47.931915 54.03234 54.03234 74.294468 4.357447 14.597447 4.357447 14.597447 0.217873 23.094468-6.100426 11.765106-18.301277 42.267234-25.273192 62.747235l-6.100425 17.647659L840.987234 466.246809c2.614468 12.636596 5.446809 32.027234 5.882553 43.138723 1.089362 16.77617 1.960851 20.697872 5.446809 23.31234 3.921702 2.614468 4.139574 3.485957 1.307234 7.40766-3.050213 4.357447-3.268085 4.139574-6.100426-4.575319-1.307234-5.228936-4.575319-11.547234-6.754042-14.597447-3.268085-3.921702-4.139574-8.714894-4.139575-20.697872 0-18.737021-6.754043-76.255319-9.150638-77.126809-1.089362-0.435745-1.742979-5.446809-1.742979-11.111489 0-17.64766-8.061277-43.574468-23.31234-74.948085-8.061277-16.558298-15.904681-31.155745-17.429787-32.462979-7.189787-5.882553-4.357447 2.614468 10.022127 30.72 17.64766 34.42383 23.31234 53.378723 25.491064 84.534468 4.357447 65.797447-18.954894 194.124255-45.753191 251.642553l-7.40766 15.904681-0.653617-13.07234c-0.217872-7.189787-0.653617-16.122553-0.871489-19.608511-0.653617-11.982979-3.485957-34.641702-7.843405-60.568511-4.793191-29.848511-4.793191-30.502128-1.960851-28.759149 3.921702 2.396596 2.178723-4.575319-1.960851-8.497021-4.139574-3.70383-5.228936-8.279149-12.200851-50.982128-4.357447-26.798298-4.357447-28.105532 2.178724-29.630638 3.485957-0.871489 5.446809-2.83234 5.446808-5.664681 0-5.228936-0.871489-5.446809-7.625532-0.871489-5.228936 3.268085-5.228936 3.268085-7.625532-6.100426-1.307234-5.228936-3.921702-13.725957-5.446808-18.954893-1.742979-5.446809-3.268085-10.893617-3.268085-12.636596 0-1.525106 13.725957-9.586383 30.502127-18.083404 27.234043-13.508085 35.731064-19.608511 28.105532-19.608511-1.525106 0-15.686809 6.53617-31.591489 14.597447s-29.412766 14.161702-29.848511 13.725957c-0.435745-0.653617-7.40766-20.044255-15.251064-43.138723-11.111489-32.027234-13.94383-43.138723-12.418723-46.188936 2.83234-5.228936 2.83234-10.893617 0-10.893617-6.971915 0-32.898723 83.445106-38.12766 122.444255-0.871489 6.971915-2.396596 10.457872-4.575319 10.457872-3.70383 0-3.70383 1.089362-0.435744 6.318298 1.960851 3.485957 0.871489 10.893617-5.664681 39.870639-4.575319 19.390638-10.022128 42.702979-11.982979 51.635744l-3.70383 16.122554-6.754042-10.675745c-10.24-15.904681-26.144681-50.328511-30.066383-65.14383-8.279149-31.155745-9.150638-89.981277-2.178724-124.187234 1.960851-8.497021 8.061277-24.837447 14.161702-37.038298 12.636596-25.491064 11.111489-28.105532-7.407659-14.161702-12.200851 8.714894-36.820426 36.820426-55.121702 62.529362-5.446809 7.625532-10.457872 13.725957-11.11149 13.725957-0.871489 0-7.843404-9.368511-15.686808-20.915745-7.625532-11.329362-15.251064-21.787234-16.77617-23.094468-3.70383-3.050213-6.53617-0.217872-3.921703 3.70383 1.307234 1.742979 8.279149 11.982979 15.904681 22.658724 7.40766 10.893617 14.161702 21.133617 14.815319 22.876595 0.871489 2.178723-15.251064 34.42383-22.222978 44.445958-0.217872 0.435745-5.011064-1.742979-10.457873-5.011064-5.882553-3.485957-11.547234-5.228936-13.725957-4.575319-2.614468 1.089362-0.653617 3.268085 8.714894 9.150638l12.418723 7.625532-6.318298 12.636596c-5.446809 10.675745-11.111489 22.876596-30.72 66.668936-7.189787 15.904681-16.994043 47.714043-18.519149 59.479149-0.871489 6.53617-2.396596 10.893617-3.268085 9.804255-0.871489-0.871489-3.921702-11.547234-6.754042-23.530213-4.575319-18.954894-5.228936-27.234043-5.228937-63.182978 0-77.126809 12.636596-123.097872 51.417873-187.588085 10.893617-18.083404 12.854468-23.748085 8.061276-22.222979-5.664681 1.960851-36.166809 57.954043-47.278298 86.713191-10.022128 25.926809-16.77617 62.965106-18.954893 106.757447-1.525106 25.273191-1.960851 27.88766-7.625532 34.859575-5.228936 6.754043-11.329362 19.826383-16.122553 33.770212l-1.307234 4.357447-2.614468-4.357447c-3.268085-5.664681-2.83234-55.121702 0.653617-78.651914 1.307234-9.368511 5.011064-27.01617 8.061276-38.999149 10.022128-39.434894 10.022128-39.434894-9.586383-23.094469-19.826383 16.340426-31.591489 30.284255-44.010213 51.417873-13.07234 22.222979-14.597447 23.965957-12.418723 16.340425 0.653617-3.050213 3.268085-13.725957 5.446809-23.965957 11.765106-51.853617 29.848511-84.316596 69.065531-123.533617 14.815319-14.815319 27.01617-27.234043 27.016171-27.88766 0-0.653617-1.525106-1.089362-3.268085-1.089361-4.139574 0-55.339574 25.273191-60.568511 30.066383-1.960851 1.742979-4.357447 2.83234-5.011064 2.178723-2.614468-2.83234 114.818723-89.109787 118.958298-87.584681 1.742979 0.653617 6.53617 1.742979 10.457872 2.396596 5.882553 1.089362 6.971915 0.653617 6.971915-3.050213 0-2.614468-1.525106-5.664681-3.268085-7.189787-2.614468-2.178723 0.435745-5.228936 18.301277-18.519149 23.748085-17.64766 33.334468-23.31234 35.077446-20.697872 0.653617 0.871489 15.251064 2.83234 32.680852 4.357446z m324.629787 113.729362c0 1.089362 0.871489 1.525106 1.742979 0.871489 1.089362-0.653617 4.357447-0.435745 7.625531 0.435745l5.664681 1.525107-15.468936 28.323404c-36.384681 67.540426-41.613617 79.305532-43.356596 98.042553-5.664681 55.775319-7.625532 64.925957-14.379574 66.015319-4.139574 0.653617-4.357447-0.871489-5.664681-21.787234-0.653617-12.418723-3.268085-31.155745-5.446808-41.831489l-4.357447-19.390639 7.189787-20.915744c13.508085-38.999149 39.217021-94.338723 46.406808-99.56766 3.050213-2.178723 5.011064-1.960851 11.982979 1.960851 4.357447 2.396596 8.061277 5.446809 8.061277 6.318298z m-320.272341 8.932766c-10.893617 22.876596-13.725957 40.96-13.508085 85.405958 0 28.105532 1.089362 44.228085 3.70383 56.646808 4.357447 20.697872 16.77617 51.417872 29.194894 71.68 4.793191 8.061277 8.932766 15.251064 8.932766 15.904681 0 3.70383-63.182979-7.843404-69.065532-12.636596-5.446809-4.575319-8.932766 0-17.865532 22.876596-7.625532 19.608511-8.932766 25.055319-8.932766 39.434894v16.558297l-12.854468-6.971915c-14.597447-7.625532-40.96-28.977021-46.624681-37.691914-5.664681-8.497021-5.228936-43.138723 0.653617-54.685958 2.396596-4.793191 4.357447-9.150638 4.357447-10.022128 0-0.871489 3.268085-8.714894 7.407659-17.647659 4.139574-8.714894 11.329362-24.401702 16.122553-35.077447 4.793191-10.457872 9.368511-18.954894 10.24-18.954894 1.307234 0 51.417872 30.066383 54.032341 32.680852 1.089362 0.871489-16.558298 9.150638-39.217021 18.519148-42.267234 17.429787-45.317447 18.954894-44.010213 22.440852 0.871489 2.178723 86.059574-32.027234 90.852766-36.602554 4.575319-4.139574 0.653617-7.40766-42.485107-33.116595-8.714894-5.228936-15.904681-10.022128-15.90468-11.11149 0-1.742979 21.569362-40.742128 22.658723-40.742127 0.217872 0 6.318298 8.279149 13.290213 18.519149 11.982979 17.429787 16.340426 21.787234 16.340425 16.122553 0-1.307234-5.882553-11.111489-13.07234-21.787234l-13.072341-19.390639 11.329362-15.686808c22.876596-32.027234 50.546383-62.747234 53.596596-59.697021 0.435745 0.435745-2.396596 7.189787-6.100426 15.033191z m-190.202553 4.139575c-6.53617 6.318298-16.558298 17.429787-22.222979 24.619574-5.664681 7.189787-10.675745 13.508085-11.111489 13.94383-0.435745 0.435745-2.614468-1.525106-4.793191-4.357447-2.396596-2.614468-7.40766-6.100426-11.329362-7.40766l-7.189787-2.396595 22.658723-13.290213c25.055319-14.597447 44.010213-24.619574 45.099575-23.530213 0.435745 0.435745-4.575319 5.882553-11.11149 12.418724z m299.574468 44.228085c10.24 28.977021 12.418723 37.474043 10.022128 38.781276-1.525106 0.871489-10.24 5.882553-19.172766 11.11149-8.932766 5.011064-20.262128 11.547234-24.837447 14.379574l-8.497021 5.228936 1.525106-12.854468c1.960851-18.083404 16.122553-73.205106 24.619575-96.953191 1.089362-2.83234 1.307234-2.83234 2.396595 0 0.653617 1.742979 6.971915 19.826383 13.94383 40.306383z m226.15149-20.915745c0 9.586383 0.653617 18.737021 1.307234 20.697872 1.089362 3.050213-0.653617 3.485957-11.982979 3.485958-7.40766 0-13.290213-0.653617-13.290213-1.307234 0-2.83234 20.697872-40.088511 22.222979-40.088511 1.089362 0 1.742979 7.843404 1.742979 17.211915z m-651.656171-12.636596c3.70383 1.307234 6.754043 3.050213 6.754043 3.70383-0.217872 3.485957-13.94383 16.340426-14.815319 13.94383-0.871489-3.050213-6.971915-3.70383-6.971915-0.653617 0 2.396596 11.547234 16.77617 17.429787 21.569361l5.011064 3.921703-5.228936 5.446808c-2.83234 2.83234-7.40766 8.061277-10.24 11.765107l-4.793192 6.53617-8.497021-9.368511c-16.122553-17.64766-16.558298-38.999149-1.089362-52.725106 8.279149-7.189787 11.765106-7.843404 22.440851-4.139575z m82.137873 27.01617c6.318298 6.318298 6.100426 6.971915-4.793192 30.066383l-7.625532 15.686809 1.525107-15.904681 1.307234-15.904681-8.932766-8.497021c-5.011064-4.793191-8.932766-9.150638-8.932766-9.804255 0-0.653617 5.011064-1.089362 10.893617-1.089362 8.932766 0 12.200851 1.089362 16.558298 5.446808z m-120.919149 11.11149c1.960851 9.586383 7.189787 18.519149 15.686808 26.580425l7.625532 7.40766-3.70383 10.675745c-4.793191 13.508085-5.664681 14.161702-11.547234 10.24-25.055319-16.77617-34.42383-47.060426-18.083404-59.261277 5.882553-4.357447 8.279149-3.268085 10.022128 4.357447z m97.824681-1.307234c8.061277 7.625532 8.061277 5.664681-1.307234 70.590638-3.050213 20.262128-5.446809 40.96-5.664681 45.753192 0 8.932766-7.625532 33.988085-10.24 33.988085-0.653617 0-4.139574-1.960851-7.625532-4.139575-5.664681-3.70383-5.882553-4.357447-2.178724-6.318298 6.53617-3.70383 0.871489-7.625532-6.53617-4.793191-3.268085 1.089362-11.111489 2.178723-17.429787 2.178723-11.765106 0-13.508085-1.089362-28.105532-18.737021-3.921702-4.575319-3.70383-4.793191 3.70383-9.586383 4.357447-2.614468 7.843404-6.100426 7.843404-7.843404 0-1.742979 2.178723-3.050213 5.011064-3.050213 2.83234 0 7.625532-2.614468 10.675745-6.100426 5.882553-5.882553 19.172766-33.116596 19.172766-38.781276 0-7.40766-4.793191-1.742979-11.982979 13.725957-11.982979 25.926809-17.429787 29.630638-27.234043 19.172766-4.357447-4.793191-4.793191-6.754043-3.921702-20.044255 2.396596-31.373617 26.580426-62.529362 45.753192-58.60766 3.70383 0.653617 9.368511 3.70383 13.07234 6.754043 7.40766 6.318298 10.457872 6.971915 10.457872 2.178723 0-1.742979-3.268085-5.446809-7.407659-8.061276l-7.625532-5.011064 4.575319-4.793192c6.100426-6.53617 8.714894-6.318298 16.994043 1.525107z m601.327659 7.843404c10.24 1.742979 11.982979 3.70383 8.932766 11.111489-6.53617 16.122553-11.547234 206.325106-6.971915 263.189788 3.921702 48.803404 13.508085 99.131915 18.737022 99.131915 2.396596 0 2.396596-2.178723 0-11.547235-3.268085-11.982979-11.982979-61.44-11.765107-65.579574 0-1.307234 1.742979 3.050213 3.921702 9.586383 8.497021 26.798298 36.384681 59.697021 64.708085 76.473191 30.502128 18.083404 67.322553 27.451915 98.696171 25.05532l16.558298-1.307234-13.290213 6.318297c-13.290213 6.318298-37.691915 13.290213-46.188936 13.290213-7.40766 0-5.664681 5.882553 2.396595 8.497021 12.854468 4.139574 51.635745 13.290213 69.719149 16.776171 35.077447 6.318298 40.742128 7.843404 40.742128 9.804255 0 3.70383-11.111489 17.64766-25.055319 31.373617-15.251064 15.033191-43.138723 32.245106-64.054468 39.434894-40.306383 13.94383-89.981277 11.765106-124.840851-5.882554-25.055319-12.418723-41.613617-30.502128-59.479149-64.054468-18.737021-35.731064-28.977021-68.629787-40.742128-131.812766l-7.189787-38.127659V620.93617c0-72.769362 3.050213-110.243404 11.329361-142.48851 1.742979-7.189787 2.614468-16.340426 1.742979-20.262128-0.871489-4.575319-0.217872-9.586383 1.742979-13.290213 1.742979-3.268085 7.625532-15.686809 13.290213-27.451915l10.24-21.569361 14.597447 1.307234c8.061277 0.871489 18.083404 1.960851 22.222978 2.83234z m-696.102127 52.289362c10.675745 7.189787 11.982979 8.932766 11.982978 15.251064 0 8.497021-1.742979 8.932766-15.468936 4.139574-20.48-7.189787-30.284255-24.401702-23.748085-41.613617l2.396596-5.882553 6.318298 10.022127c3.70383 5.882553 11.329362 13.508085 18.519149 18.083405z m156.650212-12.200851c-1.742979 6.53617-5.011064 23.094468-7.407659 36.602553-10.457872 59.261277-0.871489 132.902128 11.982978 93.685106 4.575319-13.725957 13.94383-33.988085 16.558298-35.513191 0.871489-0.653617 2.178723 3.485957 3.050213 9.150638 1.525106 12.200851 13.508085 64.925957 16.558298 72.115745 1.089362 2.83234 2.83234 4.575319 3.70383 3.921702 1.089362-0.653617 4.139574 3.70383 6.754042 9.804255 2.83234 5.882553 8.279149 15.686809 12.636596 21.787234 4.139574 6.100426 7.189787 12.636596 6.754043 14.815319-0.653617 3.70383-1.742979 3.70383-13.725958-1.960851-14.597447-6.53617-31.373617-11.111489-69.719149-18.737021-47.060426-9.150638-78.21617-15.686809-88.891915-18.519149l-10.675744-2.614468 11.111489-6.318298c23.748085-13.725957 35.077447-32.245106 58.60766-95.645957 10.457872-27.669787 13.07234-39.217021 14.161702-58.825532 0.435745-5.228936 2.83234-10.457872 7.189787-15.251064 8.061277-9.150638 22.876596-22.222979 23.965957-21.133617 0.435745 0.435745-0.653617 6.100426-2.614468 12.636596z m323.758298 6.53617c2.178723 6.53617 4.357447 15.904681 5.228936 20.697872l1.525107 8.714894-10.457873 3.921702c-5.664681 1.960851-22.440851 8.279149-37.038297 14.161702-35.948936 13.94383-35.948936 14.379574 4.357446 34.641702 16.994043 8.714894 36.166809 18.737021 42.267234 22.440851 11.329362 6.53617 11.329362 6.53617 9.150639 1.307234-1.742979-3.485957-13.508085-10.675745-39.434894-24.183829l-37.25617-19.172766 34.42383-13.725958c18.954894-7.625532 34.859574-13.508085 35.077446-13.290213 0.435745 0.217872 3.268085 16.340426 6.318298 35.29532 3.050213 19.172766 6.971915 37.25617 8.497022 40.306382 3.268085 6.100426 2.83234 11.765106-5.228937 52.942979-2.614468 14.161702-6.53617 27.669787-8.497021 30.284256-2.396596 2.83234-9.586383 5.882553-18.954893 8.279148l-15.033192 3.70383-1.525106-6.754042c-0.653617-3.70383-2.396596-11.982979-3.70383-18.301277-3.485957-16.77617-15.251064-44.228085-22.222979-51.2-5.228936-5.011064-7.625532-5.882553-19.172766-5.882553-7.189787 0-13.508085-0.653617-13.94383-1.742979-0.653617-0.871489 3.268085-19.172766 8.497022-40.742127 5.228936-21.569362 10.675745-44.66383 11.982978-51.417873 2.178723-11.111489 3.050213-12.636596 11.547234-16.77617 4.793191-2.614468 17.211915-9.586383 27.451915-15.686809 10.24-5.882553 19.390638-10.457872 20.48-10.24 1.089362 0.435745 3.70383 6.100426 5.664681 12.418724z m107.628936 15.251064c2.83234 22.005106 3.921702 52.289362 1.960851 52.289361-1.089362 0-3.921702-2.178723-6.318297-5.011063-4.575319-5.228936-5.228936-17.429787-1.960851-46.406809 1.525106-15.686809 4.357447-16.122553 6.318297-0.871489z m-598.931063 13.725957c3.70383 1.742979 11.765106 4.357447 17.865531 6.100426 7.843404 1.960851 11.982979 4.139574 12.854469 6.971915 1.525106 4.793191-1.089362 6.971915-12.418724 10.457872-6.53617 1.960851-9.368511 1.742979-15.686808-1.307234-10.457872-4.793191-19.172766-16.77617-20.48-27.88766l-1.307234-9.150638 6.318297 5.664681c3.485957 3.268085 9.368511 7.189787 12.854469 9.150638z m130.941276 4.793192c-0.653617 6.53617-2.178723 14.161702-3.485957 16.77617-1.089362 2.83234-6.971915 18.301277-13.290213 34.42383-16.77617 44.228085-24.401702 59.043404-35.731064 69.501276-12.200851 11.111489-35.513191 22.658723-44.010213 21.569362l-6.100425-0.653617 0.217872-33.770213c0.217872-39.217021 2.178723-59.479149 5.882553-58.171915 1.742979 0.435745 3.050213 10.24 3.70383 29.412766 1.307234 32.027234 3.050213 36.820426 13.94383 33.988085 9.150638-2.178723 30.284255-23.094468 37.691915-37.25617 6.53617-11.982979 22.440851-51.417872 22.440851-55.121702 0-2.614468 17.64766-32.680851 18.954893-32.680851 0.653617 0 0.653617 5.446809-0.217872 11.982979z m-144.667234 13.07234c4.575319 5.882553 18.954894 14.161702 24.401702 14.161702 3.70383 0 4.357447-1.525106-32.680851 65.361702-21.351489 38.781277-25.491064 42.702979-32.680851 31.59149-4.575319-6.754043-3.268085-15.033191 5.882553-42.920851C190.85617 538.580426 211.33617 488.034043 212.861277 488.034043c0.653617 0 3.050213 2.396596 5.446808 5.446808zM833.797447 520.714894c15.033191 14.815319 14.815319 19.826383-2.832341 75.819574-12.854468 40.742128-13.725957 41.831489-29.412766 41.831489-7.189787 0-7.625532-1.742979-3.268085-11.547234 3.268085-8.061277 16.77617-67.758298 16.558298-74.948085 0-5.882553 3.921702-8.714894 5.664681-3.921702 1.089362 2.83234-8.061277 46.624681-13.508085 64.054468-1.089362 4.139574-0.871489 4.793191 1.307234 3.485958 2.178723-1.307234 2.614468-0.653617 1.742979 2.83234-1.307234 5.011064 1.307234 6.53617 3.921702 2.396596 0.653617-1.307234 1.742979-8.497021 1.960851-15.904681 0.435745-7.40766 2.83234-21.787234 5.228936-32.245106 5.664681-23.31234 5.664681-27.234043 0-30.066383-3.268085-1.960851-4.139574-3.921702-3.268085-8.279149 0.435745-3.268085 1.525106-9.586383 2.396596-14.161702 0.653617-4.357447 1.960851-8.061277 2.83234-8.061277 1.089362 0 5.664681 3.921702 10.675745 8.714894z m-527.033192 21.133617c5.664681 3.268085 10.457872 6.100426 10.893617 6.318298 1.525106 1.089362-6.754043 14.815319-14.161702 22.658723-8.932766 10.022128-21.351489 18.301277-24.619574 16.340425-1.307234-0.871489-2.178723-11.765106-2.178724-26.362553V535.965957h10.022128c6.754043 0 13.07234 1.742979 20.044255 5.882554zM577.361702 570.825532c10.675745 2.396596 32.027234 4.575319 50.110638 5.446808 17.429787 0.653617 33.55234 1.742979 36.166809 2.178724 9.804255 2.178723 32.462979 70.372766 24.837447 75.165957-5.228936 3.268085-39.217021 5.011064-71.897873 3.70383-32.462979-1.307234-55.339574-5.664681-75.165957-14.379574l-9.586383-4.139575 0.871489-17.211915c0.653617-16.994043 3.485957-27.669787 12.200851-47.278298 3.921702-8.932766 5.228936-10.24 9.150639-9.150638 2.614468 0.871489 13.07234 3.268085 23.31234 5.664681z m-118.522553 14.597447c0.653617 3.921702 5.228936 11.547234 10.893617 18.083404l10.022128 11.111489-1.525107 23.094468c-1.525106 23.094468-1.525106 23.094468-5.446808 17.865532-9.368511-12.200851-17.865532-28.541277-20.915745-39.434893-2.614468-10.24-2.614468-13.508085 0.653617-30.066383 2.178723-10.24 4.139574-16.122553 4.575319-13.072341 0.217872 3.050213 1.089362 8.497021 1.742979 12.418724z m297.395745 39.217021c1.742979 18.954894 1.960851 27.234043 0.217872 30.502128-3.70383 6.971915-29.848511 28.759149-28.105532 23.530212 0.653617-2.396596 3.70383-11.329362 6.754043-19.60851 3.050213-8.497021 7.625532-27.234043 10.457872-41.83149 3.050213-16.77617 5.446809-25.055319 6.53617-22.658723 0.871489 2.396596 2.614468 15.904681 4.139575 30.066383z m-243.581277 17.865532c-4.139574 18.083404-18.737021 37.25617-28.105532 37.25617-6.53617 0-9.586383-6.318298-4.575319-9.150638 3.050213-1.525106 3.70383-5.882553 3.70383-25.491064 0-12.854468 0.653617-23.965957 1.307234-24.619574 0.653617-0.871489 7.40766 2.614468 15.251064 7.625531 12.418723 7.843404 13.725957 9.368511 12.418723 14.379575zM376.919149 649.259574c19.826383 3.921702 36.820426 8.061277 37.909787 8.932766 3.050213 2.614468-5.011064 31.809362-17.429787 64.054469-38.345532 96.953191-94.774468 169.722553-148.588936 190.85617-10.457872 4.357447-16.558298 5.011064-38.563404 5.011064-22.658723 0.217872-28.977021-0.653617-46.842554-6.100426-18.954894-5.664681-46.188936-18.519149-49.021276-23.31234-0.653617-0.871489 1.525106-2.396596 4.793191-3.268086 22.005106-5.228936 61.004255-35.295319 83.445107-63.836595 9.586383-12.200851 13.290213-15.251064 18.083404-15.251064 3.268085-0.217872 5.882553-1.089362 5.882553-1.960851 0-1.089362-11.982979-2.614468-26.580425-3.268085-30.284255-1.525106-45.317447-5.664681-52.07149-14.161702l-4.575319-5.882554 23.748085-1.307234c26.362553-1.525106 40.088511-6.100426 66.668936-21.787234 26.580426-15.904681 58.389787-49.457021 77.998298-82.573617 8.932766-15.251064 9.586383-15.904681 10.24-9.804255 1.089362 9.150638-3.268085 29.848511-9.804255 45.317447-10.457872 25.926809-13.290213 30.937872-25.491064 47.060425-11.111489 14.815319-13.725957 20.262128-8.061277 16.776171 6.100426-3.921702 27.01617-35.731064 34.641703-52.725107 11.547234-25.708936 13.290213-32.680851 13.725957-59.261276l0.653617-22.658724 6.53617 1.089362c3.70383 0.435745 22.876596 4.139574 42.702979 8.061276z m155.560851-3.485957c6.318298 2.83234 15.468936 6.53617 20.48 8.061277 5.011064 1.525106 9.150638 3.268085 9.150638 3.921702 0 0.653617-2.614468 5.228936-5.446808 10.022127-3.050213 4.793191-5.446809 10.457872-5.446809 12.418724 0 2.178723-0.653617 3.921702-1.525106 3.921702-4.575319 0-40.96-15.033191-40.524255-16.558298 1.089362-4.139574 10.457872-27.01617 11.111489-27.01617 0.435745 0 5.882553 2.396596 12.200851 5.228936z m56.646809 16.994043c0 0.435745 2.396596 4.793191 5.228936 10.022127l5.011064 9.150639-5.882554 2.178723c-8.932766 3.485957-13.290213 0.871489-16.994042-10.24-1.960851-5.664681-3.485957-11.111489-3.485958-12.200851 0-1.742979 15.251064-0.653617 16.122554 1.089362z m25.055319 3.050212c0.653617 0.435745-1.307234 3.485957-4.139575 6.318298l-5.228936 5.664681-3.921702-5.011064c-6.100426-8.061277-5.011064-10.457872 4.357447-8.932766 4.357447 0.653617 8.497021 1.525106 8.932766 1.960851z m-43.792341 8.279149c2.83234 10.457872 9.804255 18.737021 15.904681 18.737022 2.178723 0 4.575319 1.960851 5.228936 4.357446 1.307234 4.139574-19.390638 81.702128-22.658723 85.62383-0.871489 0.871489-4.357447-1.307234-7.843404-5.011064-3.485957-3.485957-6.971915-6.53617-8.061277-6.53617-4.139574 0-1.089362 6.53617 5.882553 12.418724l7.625532 6.53617-5.011064 16.77617c-4.139574 13.94383-6.100426 17.429787-11.982978 20.915745-10.457872 6.53617-15.033191 5.664681-17.865532-3.268085-1.307234-4.139574-5.664681-12.200851-9.586383-18.083405-3.921702-5.664681-7.843404-11.329362-8.714894-12.854468-0.871489-1.742979 3.268085-7.843404 10.675745-15.904681 6.53617-7.189787 11.982979-13.725957 11.982978-14.815319 0-0.871489-1.525106-3.70383-3.268085-6.318298-3.70383-5.228936-1.525106-8.061277 8.061277-10.457872 5.228936-1.307234 5.882553-0.871489 6.53617 5.882553 0.435745 3.921702 1.742979 7.189787 2.832341 7.189787 1.307234 0 2.396596-8.279149 2.614468-19.60851 0.653617-39.217021 2.396596-55.775319 7.189787-65.579575 2.614468-5.228936 5.446809-9.586383 6.318298-9.586383 0.871489 0 2.614468 4.357447 4.139574 9.586383z m72.333617-8.714893c0 0.653617-3.268085 6.754043-13.290213 25.926808-1.960851 3.268085-2.614468 3.485957-8.279148 0.653617-11.547234-6.100426-12.200851-8.932766-4.357447-18.737021 6.318298-7.843404 8.061277-8.714894 16.558298-8.714894 5.228936 0 9.368511 0.435745 9.36851 0.87149z m23.530213 6.754042c0.435745 0.435745-1.089362 6.754043-3.70383 13.94383-5.664681 16.77617-6.100426 34.859574-0.653617 41.613617 3.921702 4.793191 3.70383 5.228936-5.446808 22.876596-5.664681 10.893617-8.497021 18.737021-7.189788 19.60851 1.089362 0.653617 3.921702-1.742979 6.100426-5.446808 3.921702-6.318298 4.139574-6.53617 7.843404-2.396596 2.178723 2.396596 6.754043 5.446809 10.24 6.754043 7.625532 3.268085 7.843404 4.793191 1.525107 7.625532-7.40766 3.268085-7.189787 10.24 0.435744 23.748085 3.921702 6.754043 6.318298 13.725957 5.664681 15.468936-0.653617 1.742979-6.53617 6.754043-13.290213 10.893617-6.53617 4.357447-14.379574 11.765106-17.429787 16.340425-3.050213 4.793191-6.754043 8.714894-8.497021 8.714894-1.742979 0-8.061277-4.575319-14.161702-10.022128l-11.11149-10.022127v-29.412766l8.497022-1.525107c8.279149-1.307234 22.005106-10.457872 22.005106-14.597446 0-3.268085-5.011064-2.178723-9.586383 2.178723-2.614468 2.396596-8.061277 5.011064-12.418723 6.318298l-7.843405 2.178723-1.307234-24.401702c-1.960851-30.937872-1.960851-59.914894-0.217872-68.629787 1.089362-5.446809 2.396596-6.754043 5.011064-5.446809 10.022128 4.139574 10.457872 3.70383 20.044255-15.033191l9.368511-18.519149 7.625532 3.050213c4.139574 1.742979 8.061277 3.485957 8.497021 4.139574z m15.904681 14.597447c10.457872 14.161702 17.211915 30.066383 17.211915 40.524255 0 12.200851-5.011064 14.597447-11.982979 5.664681-13.508085-17.211915-13.94383-17.64766-17.211915-13.508085-5.228936 6.971915-6.318298 4.139574-5.228936-13.07234 1.089362-16.122553 4.793191-28.759149 8.714894-28.759149 0.871489 0 4.793191 4.139574 8.497021 9.150638z m-72.769362 80.612766c1.089362 86.931064 2.83234 76.037447-16.340425 110.461277l-7.843405 13.943829-7.189787-8.279149c-4.139574-4.793191-10.457872-14.815319-14.161702-22.440851l-6.971915-13.943829 3.921702-15.686809c2.178723-8.497021 7.843404-27.234043 12.200851-41.613617 8.932766-28.105532 20.697872-68.194043 23.094468-77.998298 1.089362-4.575319 2.396596-5.664681 5.446809-4.793191 5.664681 1.960851 5.446809-4.575319-0.217872-7.625532-4.793191-2.614468-5.882553-10.022128-1.525107-11.547234 8.279149-3.050213 8.714894-0.435745 9.586383 79.523404zM718.978723 721.157447c5.446809 13.07234-2.83234 29.630638-15.251063 30.502127-11.765106 1.089362-15.251064 0-15.251064-4.139574 0-3.050213 1.307234-3.70383 5.011064-3.050213 8.061277 1.525106 13.290213-6.100426 11.982978-17.647659-1.307234-11.111489-0.871489-12.200851 5.882553-12.200851 3.485957 0 5.664681 1.960851 7.625532 6.53617z m32.680851 2.396596c10.24 1.525106 20.044255 3.921702 21.787235 5.446808 2.178723 2.178723 3.268085 9.150638 3.921702 23.094468 0.653617 18.301277 0.435745 20.915745-4.357447 27.88766-7.189787 10.675745-25.273191 19.608511-40.306383 19.60851-10.457872 0-11.765106-0.435745-13.725958-5.66468-2.396596-5.882553-13.508085-22.658723-20.262127-30.284256-3.921702-4.357447-3.921702-4.357447 3.268085-5.664681 15.686809-2.614468 24.18383-12.636596 24.18383-28.541276 0-9.586383-1.089362-9.368511 25.491063-5.882553z m41.395745 7.407659c3.70383 4.575319 6.100426 24.18383 4.139575 35.948936-3.050213 19.826383-16.994043 42.049362-30.72 49.239149-11.765106 6.100426-33.116596 2.83234-40.524256-6.318298-2.178723-2.614468-0.653617-3.268085 10.022128-4.139574 21.787234-2.178723 41.613617-15.468936 45.971064-31.373617 2.83234-10.24 3.050213-25.055319 0.217872-36.602553-1.089362-4.793191-1.525106-9.368511-0.871489-10.24 1.307234-2.178723 8.932766 0.217872 11.765106 3.485957z m-110.243404 14.161702c-1.089362 6.318298-0.217872 8.497021 4.357447 12.854468 3.050213 3.050213 5.664681 6.100426 5.664681 7.189788 0 3.70383-13.508085 1.525106-21.787234-3.70383-4.793191-3.050213-9.804255-5.446809-11.329362-5.446809-1.960851 0-2.178723-0.653617-0.435745-1.742978 1.307234-0.871489 4.575319-5.882553 7.40766-11.329362 7.625532-15.468936 8.932766-16.340426 13.290212-10.457872 2.83234 3.485957 3.70383 7.189787 2.832341 12.636595z m-155.996596 14.379575c0.653617 3.921702-2.178723 6.100426-17.429787 13.508085-1.089362 0.435745-1.742979-2.614468-1.742979-6.754043 0-6.318298 1.089362-8.061277 6.100426-9.804255 8.279149-3.268085 12.418723-2.178723 13.07234 3.050213z m-22.658723 4.357447c5.011064 12.854468-4.793191 21.133617-10.893617 9.150638-2.614468-5.011064-2.83234-7.189787-0.653617-9.586383 3.268085-4.139574 9.804255-3.921702 11.547234 0.435745z m308.725106 9.804255c-2.614468 2.178723-4.575319 6.318298-4.575319 9.804255 0 6.971915-7.625532 16.122553-13.290213 16.122553-3.485957 0-3.485957-1.089362 1.307234-11.547234 2.83234-6.100426 5.882553-15.033191 6.53617-19.390638l1.525107-8.279149 6.754042 4.793192 6.536171 4.575319-4.793192 3.921702z m-294.999149 5.882553c-8.497021 8.714894-9.804255 13.07234-5.446808 19.826383 1.307234 2.178723 1.742979 5.664681 0.871489 7.843404-2.178723 5.664681-6.754043 0.653617-10.022128-11.111489-3.268085-11.111489-2.614468-11.982979 14.161703-22.658723 9.368511-6.100426 9.586383-3.268085 0.435744 6.100425z m172.772766-2.614468c3.485957 8.714894 2.83234 9.586383-7.625532 9.586383-5.446809 0-9.804255-0.653617-9.804255-1.307234 0-1.742979 11.547234-13.290213 13.725957-13.725958 0.871489 0 2.614468 2.396596 3.70383 5.446809z m13.072341 3.050213l4.575319 6.53617h-5.664681c-3.921702 0-6.100426-1.525106-7.625532-5.664681-2.396596-5.882553-1.089362-10.457872 2.178723-8.497021 1.089362 0.653617 4.139574 4.139574 6.536171 7.625532z m-200.878298 22.222978c4.139574 11.765106 4.357447 13.94383 1.742978 16.558298-2.83234 2.83234-4.139574 1.525106-10.893617-8.932766-9.150638-14.161702-9.150638-14.161702-3.921702-18.083404 6.318298-4.793191 7.843404-3.485957 13.072341 10.457872z m185.191489-12.200851c5.664681 1.525106 6.53617 10.457872 1.742979 16.776171-2.83234 3.70383-3.485957 3.268085-9.804256-6.100426-3.70383-5.446809-6.754043-10.457872-6.754042-11.111489 0-1.307234 8.932766-1.089362 14.815319 0.435744z m21.351489 3.70383c1.742979 1.742979-6.754043 23.31234-9.150638 23.312341-4.793191 0-6.754043-5.446809-5.664681-16.122554 0.871489-10.457872 0.871489-10.457872 7.625532-9.150638 3.70383 0.653617 6.971915 1.742979 7.189787 1.960851z m-183.884255 31.373617c1.960851 5.664681 3.268085 10.675745 2.832341 11.11149-3.268085 3.70383-17.211915-16.558298-15.033192-22.222979 2.178723-5.882553 8.714894-0.217872 12.200851 11.111489z m157.739575 2.614468c-1.960851 2.178723-3.485957 4.793191-3.485958 5.882553 0 3.70383-14.597447 18.301277-18.301276 18.301277-4.793191 0-4.575319-10.675745 0.435744-14.597447 1.960851-1.525106 7.40766-4.793191 11.765107-7.189787 4.357447-2.396596 8.714894-6.53617 9.586383-9.150638 1.525106-4.357447 1.742979-4.575319 2.614468-1.089362 0.435745 2.178723-0.653617 5.664681-2.614468 7.843404z m13.943829-1.960851c0 4.357447-14.815319 27.669787-21.351489 33.552341-4.357447 3.921702-11.329362 3.485957-11.329362-0.435745 0-1.089362 3.921702-5.011064 8.497022-8.714894 5.882553-4.793191 10.022128-10.893617 13.508085-19.826383 3.921702-10.022128 5.664681-12.418723 7.843404-10.675744 1.525106 1.307234 2.83234 3.921702 2.83234 6.100425z m-179.091063 6.754043c7.625532 11.982979 8.061277 14.161702 4.793191 16.122553-2.396596 1.525106-21.787234-11.547234-21.787234-14.597447 0-2.614468 6.754043-12.636596 8.497021-12.636596 0.653617 0 4.575319 5.011064 8.497022 11.11149z m37.25617 22.005106c0.217872 3.485957-0.435745 6.100426-1.525107 6.100426-0.871489 0-6.100426-3.70383-11.547234-8.279149-9.804255-8.061277-11.547234-13.508085-4.575319-13.508085 2.178723-0.217872 6.100426-1.525106 9.150638-3.268085 5.228936-2.83234 5.446809-2.83234 6.971915 5.011063 0.871489 4.357447 1.525106 10.675745 1.525107 13.94383z m63.400851 2.178724c0 10.24-0.217872 10.457872-6.53617 10.457872h-6.536171l4.357447-8.061277c2.396596-4.575319 4.357447-10.675745 4.357447-13.725957 0-4.357447 0.435745-4.793191 2.178723-2.178724 1.089362 1.742979 2.178723 7.843404 2.178724 13.508086z m11.329362-5.882554c7.843404 6.754043 11.982979 6.754043 18.519148 0.653617 5.446809-5.228936 6.318298-5.011064 7.625532 1.525107 0.435745 3.70383-1.960851 5.228936-15.251063 9.804255-13.725957 4.793191-16.122553 5.011064-17.865532 2.178723-2.396596-3.485957-3.050213-19.608511-0.87149-19.60851 0.653617 0 4.139574 2.396596 7.843405 5.446808z m-75.38383 12.854468c4.139574 1.307234 10.893617 11.547234 8.932766 13.508086-0.435745 0.653617-8.497021-1.742979-18.083405-5.011064-17.865532-6.318298-20.044255-8.714894-17.429787-19.390639l1.525107-5.446808 10.24 7.407659c5.664681 4.139574 12.200851 8.061277 14.815319 8.932766z m107.193191-0.435744c1.525106 1.525106 2.614468 3.268085 2.614468 4.139574 0 2.178723-23.965957 12.200851-33.116595 13.725958-7.625532 1.307234-8.279149 1.089362-8.279149-3.485958s2.178723-5.882553 16.994042-10.893617c20.697872-6.971915 18.737021-6.53617 21.787234-3.485957z m-43.574468 13.94383c0.653617 3.921702-0.653617 4.793191-8.714893 5.882553-11.765106 1.525106-13.508085 0.435745-8.932766-6.318298 4.575319-7.189787 16.558298-6.754043 17.647659 0.435745z m-63.618723 3.703829c11.547234 3.921702 15.033191 6.100426 15.033191 9.368511s-1.307234 4.139574-6.754042 3.70383c-11.765106-0.871489-27.01617-8.714894-27.016171-13.725958 0-5.446809 0.217872-5.446809 18.737022 0.653617z m85.841702 9.150639c0 4.575319-1.089362 5.446809-6.100426 5.446808-5.882553 0-11.329362-3.268085-11.329361-6.754042 0-0.871489 3.268085-2.178723 7.189787-2.614468 3.70383-0.435745 7.625532-1.089362 8.714893-1.089362 0.871489-0.217872 1.525106 1.960851 1.525107 5.011064z m-75.601702 7.625532h5.882553v20.044255c0 11.111489 0.653617 25.491064 1.307234 31.591489 1.307234 10.24 1.089362 11.547234-2.614468 11.547234-3.921702 0.217872-3.921702 0.217872-0.217872 3.050213 4.575319 3.70383 4.793191 6.971915 0.217872 8.714894-6.53617 2.396596-11.982979-1.089362-16.122553-10.457873-6.971915-16.340426-15.686809-47.931915-16.994043-60.786383l-1.089362-12.636595 11.765107 4.357446c6.53617 2.614468 14.379574 4.575319 17.865532 4.57532z m75.165957 1.089361c1.742979 1.307234-6.754043 22.005106-11.547234 28.541277-5.664681 7.40766-6.100426 7.625532-10.022128 3.921702-4.575319-4.139574-5.446809-14.815319-2.178723-23.094468 1.089362-2.83234 2.614468-6.53617 3.268085-8.714894 0.871489-2.83234 2.83234-3.268085 10.457873-2.396595 5.228936 0.653617 9.586383 1.525106 10.022127 1.742978z" p-id="6738" fill="#1296db"></path><path d="M702.202553 48.149787c1.307234 11.111489 5.664681 16.994043 12.418724 16.994043 2.178723 0 1.525106-1.307234-2.178724-4.357447-4.139574-3.485957-5.446809-6.53617-5.446808-14.161702 0-6.754043-0.871489-9.586383-3.050213-9.586383-2.396596 0-2.614468 2.396596-1.742979 11.111489zM760.156596 174.515745c-2.614468 5.011064-0.653617 24.619574 2.178723 22.658723 1.089362-0.435745 1.307234-5.228936 0.87149-10.675745-0.653617-5.664681-0.217872-10.022128 1.307234-10.893617 3.050213-1.960851 3.268085-5.664681 0.217872-5.66468-1.089362 0-3.050213 2.178723-4.575319 4.575319zM890.008511 357.746383c-5.882553 12.418723-17.429787 36.602553-25.708937 54.03234l-15.033191 31.59149 2.396596 14.161702c1.307234 7.843404 3.050213 24.837447 3.70383 37.691915 0.871489 16.77617 1.960851 23.094468 3.703829 21.351489 1.525106-1.525106 1.089362-12.854468-1.307234-38.563404-3.268085-32.027234-3.268085-36.820426-0.435744-41.831489 5.882553-10.675745 46.842553-97.824681 46.842553-99.785532 0-0.435745-0.871489-0.871489-1.742979-0.87149-1.089362 0-6.53617 10.022128-12.418723 22.222979z" p-id="6739" fill="#1296db"></path><path d="M902.427234 354.478298c-16.340426 35.513191-33.770213 72.333617-38.781277 81.92-5.228936 10.24-5.228936 10.893617-3.268085 36.602553 1.307234 14.597447 2.83234 27.01617 3.70383 27.88766 0.871489 0.653617 0.871489-10.893617 0.217872-25.926809l-1.089361-27.234042 8.279149-17.429788c4.357447-9.586383 15.686809-33.334468 24.837447-52.507234 17.211915-36.602553 17.64766-37.909787 14.815319-37.909787-1.089362 0-4.793191 6.53617-8.714894 14.597447zM826.171915 569.300426c-5.011064 14.597447-8.497021 31.809362-6.100426 29.412765 2.83234-2.396596 13.94383-40.96 12.418724-42.049361-0.871489-0.435745-3.70383 5.228936-6.318298 12.636596zM1039.251064 152.946383l-25.055319 28.977021-0.653617-21.787234c-0.217872-11.982979-1.525106-22.658723-2.832341-23.965957-1.307234-1.307234-1.742979 18.737021-1.525106 57.73617 0.435745 45.317447 1.307234 59.697021 3.485957 60.568511 1.960851 0.653617 2.614468-6.971915 2.614468-32.680851 0.217872-31.591489 0.435745-33.770213 5.228937-39.434894l5.011063-6.100426 23.530213 39.870639c26.798298 44.881702 30.72 50.764255 32.462979 47.714042 0.653617-1.089362-10.893617-22.005106-25.708936-46.624681l-26.798298-44.445957 19.172766-22.222979c18.083404-20.915745 21.787234-26.362553 17.647659-26.362553-0.871489 0-12.854468 13.07234-26.580425 28.759149zM903.080851 163.186383c-8.279149 15.468936-15.904681 27.669787-16.558298 27.234043-0.871489-0.435745-10.022128-12.200851-20.48-25.926809-10.457872-13.725957-19.826383-25.055319-20.915744-25.055319-0.871489 0-1.307234 15.033191-0.435745 33.116596 2.178723 60.350638 3.921702 82.355745 6.100425 82.355744 2.178723 0 2.178723-54.250213-0.217872-84.534468-0.653617-8.497021-0.435745-15.686809 0.653617-15.686808 0.871489 0 4.575319 4.139574 8.279149 9.36851 11.765106 16.994043 26.144681 34.205957 28.323404 34.205958 1.307234 0 7.189787-9.368511 13.072341-20.697873 18.954894-35.948936 17.64766-37.474043 19.390638 22.005107 0.871489 28.759149 2.396596 52.942979 3.485957 54.03234 2.614468 2.614468 2.83234-22.658723 0.653617-78.869787-0.871489-26.362553-2.178723-39.652766-3.703829-39.652766-1.307234 0-9.150638 12.636596-17.64766 28.105532zM1162.566809 152.074894c-0.653617 8.061277-1.307234 33.334468-1.307235 56.428936v41.613617l-6.754042 5.664681c-6.100426 5.228936-8.279149 5.664681-26.144681 5.664681H1108.970213l-8.714894-11.11149-8.714893-10.893617 1.525106-50.110638c0.871489-33.116596 0.653617-49.892766-0.871489-49.892766-2.83234 0-5.011064 31.155745-5.011064 70.808511v30.937872l9.150638 12.418723 8.932766 12.200851h23.748085c23.31234 0 23.530213 0 29.630638-6.53617l6.318298-6.53617 1.307234-39.434894c1.960851-53.160851 1.960851-73.422979-0.435744-74.730212-0.871489-0.653617-2.396596 5.446809-3.268085 13.508085zM975.414468 163.404255c-5.011064 3.921702-5.882553 4.139574-7.625532 0.87149-1.307234-2.178723-4.139574-3.050213-8.279149-2.614468-5.011064 0.435745-6.53617 1.960851-6.971915 6.53617-0.871489 7.40766 11.982979 18.083404 19.172766 15.904681 6.971915-2.178723 17.429787-11.982979 17.429788-16.558298 0-6.754043-7.40766-9.150638-13.725958-4.139575z m-10.022128 5.664681c3.921702 3.485957 6.318298 3.268085 13.290213-1.742979 1.960851-1.525106 4.357447-1.960851 5.228936-1.089361 2.178723 1.960851-6.971915 11.765106-12.418723 13.07234-4.793191 1.307234-15.033191-6.100426-15.033192-10.675745 0-4.139574 4.139574-3.921702 8.932766 0.435745z" p-id="6740" fill="#1296db"></path><path d="M965.174468 223.101277c0 18.519149 0.871489 34.205957 1.960851 34.859574 3.268085 1.960851 3.485957-2.614468 2.832341-36.384681-0.871489-43.138723-4.793191-42.049362-4.793192 1.525107z" p-id="6741" fill="#1296db"></path></svg>